<svg version="1.0" xmlns="http://www.w3.org/2000/svg" width="1771pt" height="322pt" viewBox="0 0 1771 322"><title>Grundejerforeningen Tvingsbakken - logo</title><g transform="translate(0.000000,600.000000) scale(0.100000,-0.100000)"
fill="#ffffff" stroke="none">
<path d="M10492 5965 c-6 -12 -14 -14 -33 -7 -13 5 -35 8 -49 7 -14 -1 -33 -3
-42 -4 -21 -1 -25 -37 -5 -44 12 -5 2 -16 -28 -32 -6 -3 -5 -7 3 -11 6 -3 12
-12 12 -20 0 -8 6 -14 13 -14 6 0 23 -10 37 -21 l25 -20 -25 6 c-14 4 -34 13
-45 19 -14 9 -30 10 -57 3 -21 -5 -38 -13 -38 -16 0 -4 16 -13 35 -21 19 -7
31 -18 28 -23 -4 -6 2 -8 15 -5 27 8 33 -12 10 -34 -13 -13 -18 -14 -18 -5 0
8 -9 13 -22 11 -13 -1 -33 -3 -46 -3 -19 -1 -21 -5 -16 -26 6 -25 -10 -36 -19
-12 -3 9 -7 9 -17 0 -7 -6 -18 -9 -25 -6 -16 6 -37 -28 -27 -44 4 -6 29 -17
56 -25 28 -8 52 -20 54 -26 5 -15 -20 -16 -35 -1 -8 8 -13 8 -17 0 -8 -12 -36
1 -73 33 -21 17 -23 18 -23 3 0 -9 -4 -17 -9 -17 -5 0 -11 -10 -13 -22 -3 -26
38 -58 73 -58 11 0 18 -4 14 -9 -3 -5 -1 -12 5 -16 6 -4 8 -11 5 -16 -4 -5 1
-9 9 -9 8 0 18 5 21 10 3 6 11 10 16 10 6 0 7 -5 4 -10 -3 -6 -3 -20 0 -31 6
-17 13 -20 40 -17 22 2 31 0 28 -8 -6 -15 25 -26 51 -18 17 6 19 4 10 -7 -6
-8 -14 -22 -17 -32 -6 -16 -3 -18 25 -12 17 4 39 16 47 27 15 18 18 18 60 3
24 -8 67 -15 96 -15 33 0 57 -5 64 -14 7 -8 23 -17 36 -20 18 -5 25 -13 25
-31 0 -28 5 -27 -246 -18 l-142 5 -37 36 c-38 37 -64 46 -77 27 -5 -6 -8 -5
-8 3 0 8 -8 24 -19 37 -13 18 -21 21 -30 12 -8 -8 -11 -8 -11 2 0 9 -9 12 -25
9 -14 -3 -28 -1 -31 3 -8 14 -19 11 -45 -12 -17 -14 -32 -19 -51 -15 -16 3
-28 1 -28 -5 0 -15 -33 -46 -55 -52 -18 -4 -18 -5 2 -6 31 -1 49 -37 26 -50
-16 -9 -14 -10 8 -11 39 0 51 -20 37 -60 l-11 -33 -19 26 c-16 22 -23 25 -45
16 -19 -7 -32 -6 -49 6 -13 8 -30 15 -38 15 -7 0 -16 6 -19 14 -7 19 -47 9
-47 -12 0 -8 11 -25 25 -38 l25 -24 -20 -20 c-11 -11 -26 -17 -35 -14 -9 4
-15 1 -15 -7 -1 -8 -7 -3 -16 11 -14 23 -14 23 -9 3 4 -14 2 -23 -4 -23 -6 0
-11 4 -11 9 0 14 -38 1 -44 -14 -3 -8 -14 -11 -28 -8 -20 5 -21 4 -7 -8 23
-19 30 -44 16 -58 -8 -8 -8 -11 0 -11 7 0 15 5 18 10 11 18 34 11 32 -10 -1
-11 -5 -20 -10 -20 -4 0 -6 -4 -2 -10 3 -5 -6 -17 -20 -26 -29 -19 -33 -34 -7
-27 13 3 22 -4 31 -23 l12 -27 28 27 c24 23 30 25 40 13 9 -12 8 -16 -4 -21
-26 -10 -17 -21 18 -21 38 0 69 30 62 60 -2 11 0 27 5 35 8 12 10 10 10 -8 0
-22 1 -22 30 -7 16 8 33 15 37 14 21 -4 33 2 33 16 0 17 16 21 22 5 4 -12 78
5 88 20 15 25 92 30 185 13 74 -13 96 -21 123 -46 40 -39 28 -57 -23 -33 -32
15 -37 16 -51 2 -20 -20 -40 -20 -48 -1 -3 10 -19 15 -46 15 -32 0 -40 -4 -40
-18 0 -12 11 -21 33 -27 17 -6 32 -14 32 -20 0 -5 -22 -17 -50 -28 -120 -45
-149 -45 -166 0 -5 14 -12 23 -16 20 -3 -4 -12 1 -19 11 -12 15 -13 15 -14 1
0 -22 -44 -51 -57 -38 -11 11 -43 2 -43 -13 0 -5 -5 -6 -10 -3 -6 3 -17 -1
-26 -9 -14 -14 -17 -14 -37 5 l-22 20 -17 -20 c-9 -12 -21 -21 -28 -21 -7 0
-6 -6 4 -15 8 -8 19 -15 25 -15 6 0 11 -7 11 -15 0 -11 5 -12 25 -5 14 5 32 7
41 3 8 -3 26 0 40 7 18 10 27 11 35 3 13 -13 -15 -34 -74 -54 -32 -11 -39 -11
-46 0 -6 8 -21 11 -44 8 -19 -2 -40 0 -45 5 -11 11 -26 -33 -24 -72 0 -16 -1
-19 -4 -7 -6 20 -25 22 -42 5 -17 -17 -15 -48 5 -70 15 -17 15 -20 3 -28 -11
-7 -9 -10 12 -10 14 0 28 -5 30 -12 2 -6 11 -12 19 -14 7 -1 22 -5 32 -9 12
-5 17 -2 17 9 0 9 5 16 10 16 6 0 15 10 21 23 9 20 9 20 6 -6 -3 -15 0 -30 5
-33 5 -4 -3 -19 -18 -35 -17 -17 -30 -25 -34 -19 -6 10 -101 40 -127 40 -8 0
-13 -14 -13 -36 0 -31 -2 -35 -21 -29 -15 5 -19 4 -15 -4 4 -6 14 -11 22 -11
8 0 14 -4 14 -10 0 -5 12 -16 28 -24 25 -14 18 -21 -16 -17 -21 3 -25 -29 -7
-49 10 -11 22 -17 26 -14 5 3 9 0 9 -7 0 -7 9 -3 21 10 12 12 27 20 35 17 8
-3 14 1 14 9 0 18 12 19 27 4 9 -9 10 -7 6 10 -9 33 10 25 31 -14 11 -20 22
-32 25 -27 6 9 54 19 122 25 19 2 41 7 48 11 17 11 66 -26 65 -48 -1 -9 6 -16
15 -16 10 0 24 -12 31 -26 l14 -25 10 23 c15 38 13 51 -17 91 l-29 37 24 0
c12 0 34 -9 48 -20 32 -25 40 -25 40 0 0 18 3 19 21 9 13 -7 24 -7 28 -2 3 6
16 15 29 22 12 6 22 18 22 25 0 8 9 16 20 19 16 4 19 11 14 35 -5 27 -3 30 36
46 23 9 69 35 102 57 83 54 113 69 143 69 22 0 25 -4 25 -39 l0 -39 -50 1
c-28 1 -50 -1 -50 -5 0 -5 -7 -8 -15 -8 -13 0 -13 -3 -3 -20 7 -11 18 -20 25
-20 7 0 13 -7 13 -15 0 -8 5 -15 10 -15 6 0 10 5 10 10 0 14 13 13 34 -3 16
-12 17 -18 2 -97 -9 -47 -20 -105 -26 -130 -6 -25 -15 -71 -21 -103 -10 -51
-15 -59 -43 -71 -26 -11 -34 -11 -47 0 -8 8 -34 14 -56 14 -22 0 -43 3 -46 6
-3 4 -30 7 -58 7 -45 0 -54 -3 -61 -23 -11 -29 8 -56 28 -39 11 9 15 7 20 -5
3 -9 12 -16 19 -16 7 0 15 -9 18 -19 3 -14 11 -18 26 -14 12 3 21 12 21 19 0
19 26 18 34 -1 3 -9 18 -15 40 -15 28 0 35 4 38 22 2 13 11 24 21 26 17 3 18
-1 12 -55 -4 -32 -16 -98 -26 -148 -10 -49 -19 -102 -19 -118 0 -15 -5 -38
-12 -50 -11 -22 -20 -55 -37 -153 -17 -92 -31 -131 -56 -158 -14 -15 -23 -32
-20 -37 4 -5 30 -9 58 -9 29 0 81 -9 117 -20 36 -11 66 -20 68 -20 1 0 -5 11
-14 25 -14 21 -16 42 -11 118 8 120 15 163 61 342 8 33 20 98 27 145 6 47 19
126 30 175 10 50 21 126 24 170 8 97 22 154 42 177 9 10 42 23 75 30 75 16 70
34 -8 29 -58 -3 -59 -3 -41 16 21 24 21 30 1 50 -16 16 -13 68 5 86 13 13 181
-33 238 -65 67 -37 117 -99 109 -133 -4 -14 -13 -25 -20 -25 -8 0 -20 -10 -29
-23 -13 -20 -13 -26 -1 -42 8 -10 14 -16 14 -12 0 4 15 -2 33 -13 65 -40 103
-10 48 38 -29 25 -31 30 -21 56 8 23 13 26 25 16 7 -6 11 -18 9 -25 -9 -21 28
-56 46 -45 22 14 33 12 26 -5 -6 -18 49 -51 59 -35 3 6 3 14 0 20 -4 6 4 9 17
7 18 -1 22 2 20 18 -5 24 -19 35 -49 35 -12 0 -34 5 -50 12 l-28 11 44 8 c32
6 51 4 71 -6 16 -8 36 -12 46 -8 10 4 20 0 26 -10 5 -10 14 -17 19 -17 6 0 8
4 5 9 -9 14 25 23 40 10 11 -9 14 -8 14 4 0 21 27 11 33 -12 4 -16 11 -17 80
-12 19 1 24 41 5 41 -7 0 -23 15 -35 34 -12 19 -35 44 -52 56 -28 19 -31 20
-31 4 0 -14 -3 -15 -12 -6 -9 9 -14 7 -24 -6 -13 -16 -13 -16 -14 2 0 12 -5
16 -15 12 -8 -3 -20 3 -27 13 -36 50 -102 52 -129 3 -10 -17 -16 -37 -14 -44
10 -27 -10 -39 -53 -32 -32 5 -49 15 -70 41 -64 82 -87 97 -219 143 l-128 45
1 45 c0 38 12 122 17 126 1 1 14 4 30 8 20 5 27 3 27 -8 0 -7 12 -16 28 -19
36 -7 78 14 74 37 -3 16 1 18 25 12 15 -3 46 -9 68 -13 22 -3 45 -13 51 -21 9
-13 14 -12 37 3 22 14 30 15 42 5 8 -7 13 -16 10 -20 -8 -13 6 -41 19 -37 6 3
18 -2 27 -10 13 -11 24 -12 60 -2 55 14 137 18 166 8 25 -9 53 -2 53 13 0 14
-27 38 -43 38 -8 0 -20 7 -27 15 -8 10 -9 15 -2 15 6 0 9 6 6 14 -6 17 -52 27
-60 14 -3 -5 -12 -4 -20 3 -7 6 -20 9 -29 6 -19 -8 -29 10 -27 45 2 28 -20 40
-33 18 -4 -6 -10 -8 -15 -5 -5 3 -11 1 -15 -5 -3 -5 -15 -10 -26 -10 -10 0
-19 -5 -19 -10 0 -6 -15 -8 -39 -4 -35 6 -41 3 -57 -20 -13 -21 -24 -26 -48
-24 -38 4 -51 38 -14 38 28 0 60 33 52 54 -4 10 3 16 22 18 36 4 40 20 9 35
-14 6 -25 7 -25 2 0 -5 -7 -9 -15 -9 -11 0 -14 7 -9 25 4 16 2 25 -6 25 -6 0
-20 10 -29 21 -14 18 -21 20 -38 10 -12 -6 -24 -19 -28 -30 -5 -15 -15 -18
-64 -17 -32 1 -66 8 -75 15 -21 18 -22 89 -1 97 18 7 20 41 3 46 -20 7 2 28
29 28 16 0 43 -16 74 -44 27 -24 61 -47 76 -51 15 -3 37 -18 50 -31 13 -14 29
-24 36 -21 6 2 17 -6 22 -17 8 -16 20 -21 44 -19 19 1 37 7 41 14 6 9 18 7 49
-9 29 -16 47 -19 59 -13 9 5 25 12 35 15 9 3 17 9 17 13 0 10 -92 68 -102 65
-5 -1 -8 4 -8 11 0 10 -16 13 -65 10 -36 -1 -65 1 -65 5 0 4 -23 6 -51 5 -52
-3 -92 13 -68 27 18 12 2 28 -34 35 -17 4 -47 14 -65 22 -31 15 -32 16 -15 35
22 25 65 17 155 -27 23 -11 27 -11 32 2 5 13 9 13 22 2 9 -7 47 -15 85 -17 60
-3 72 -1 98 20 41 32 38 41 -9 33 -31 -5 -47 -2 -75 15 -20 12 -41 20 -49 17
-7 -3 -19 -2 -26 3 -27 17 1 25 82 25 87 0 108 8 108 44 0 17 -7 21 -32 22
-65 2 -193 7 -210 8 -10 1 -18 8 -18 17 0 11 6 14 23 8 31 -11 69 -6 85 10 11
11 11 16 -3 30 -9 9 -26 16 -37 16 -14 0 -18 5 -14 16 4 12 1 14 -14 9 -15 -5
-20 -2 -20 11 0 9 -8 23 -17 30 -21 16 -37 18 -28 4 3 -5 2 -18 -4 -27 -8 -16
-10 -14 -16 10 -7 26 -15 31 -42 28 -6 -1 -14 3 -18 8 -10 17 37 34 94 34 34
0 61 5 69 14 8 8 13 15 11 17 -13 11 -50 26 -64 26 -9 0 -23 7 -31 15 -12 11
-20 12 -35 5 -25 -14 -41 -4 -34 21 5 15 1 19 -14 19 -12 0 -21 5 -21 10 0 6
-9 10 -19 10 -11 0 -21 5 -23 11 -6 18 -48 -8 -48 -28 0 -29 -20 0 -24 35 -6
41 -13 52 -31 45 -9 -3 -21 0 -29 6 -14 12 -46 5 -46 -9 0 -4 -9 -10 -20 -13
-21 -5 -28 9 -8 15 7 3 -1 11 -17 19 -26 13 -34 13 -60 0 -16 -8 -42 -15 -56
-16 -21 -2 -26 1 -22 16 6 23 -3 25 -15 4z m4 -701 c98 -4 185 -11 192 -17 23
-18 14 -54 -20 -74 -30 -17 -46 -19 -161 -12 l-129 6 -31 37 c-18 20 -35 36
-39 36 -4 0 -19 4 -33 10 -33 13 -22 34 15 27 14 -3 107 -9 206 -13z m19 -405
c52 -45 95 -86 95 -90 0 -5 -8 -9 -18 -9 -25 0 -147 -63 -221 -115 -54 -38
-71 -45 -112 -45 -27 0 -49 5 -49 10 0 6 -8 5 -19 -2 -16 -10 -23 -9 -38 4
-24 21 -43 12 -43 -21 0 -33 -7 -42 -26 -34 -12 4 -12 8 1 25 12 19 12 23 -8
38 -12 10 -27 16 -33 13 -7 -2 -15 0 -19 6 -10 18 -34 12 -61 -14 -20 -20 -29
-23 -49 -15 -14 5 -25 13 -25 18 0 15 24 32 47 32 26 0 51 36 35 52 -7 7 -3
17 13 32 13 12 27 34 30 48 7 28 52 52 152 81 56 17 63 15 63 -20 0 -25 -16
-29 -92 -24 -23 1 -38 -2 -38 -9 0 -7 -8 -9 -20 -5 -17 5 -19 2 -16 -31 3 -30
8 -38 26 -39 12 -1 26 -8 30 -15 7 -11 11 -11 24 -1 8 7 21 11 27 9 14 -5 48
25 74 64 12 20 15 38 11 63 -6 30 -4 36 16 44 21 8 103 26 136 30 7 0 56 -36
107 -80z"/>
<path d="M5055 5459 c-46 -13 -91 -63 -104 -113 -6 -25 -11 -117 -11 -206 l0
-160 -79 6 -78 7 -42 -38 -41 -37 0 26 c0 25 -3 26 -51 26 l-52 0 6 -102 c4
-57 10 -196 13 -310 l7 -208 53 0 54 0 -5 43 c-2 23 -7 115 -10 205 -6 177 1
225 38 260 24 23 73 32 96 17 9 -5 19 -2 28 10 7 11 13 13 13 7 0 -7 11 -12
25 -12 l25 0 2 -262 3 -263 50 0 50 0 -3 263 -4 262 71 0 71 0 0 50 0 50 -70
0 -70 0 0 154 c0 85 4 166 10 180 14 37 51 52 95 39 l35 -11 0 58 c0 56 -1 58
-31 64 -39 7 -56 7 -94 -5z"/>
<path d="M2882 5207 c-32 -7 -41 -14 -38 -26 19 -64 126 -504 123 -507 -2 -2
-23 6 -48 18 -128 62 -287 -11 -335 -155 -22 -67 -15 -191 16 -272 33 -86 117
-168 194 -190 110 -32 208 8 278 113 l16 23 6 -35 c7 -39 13 -41 67 -26 l37
10 -18 73 c-10 39 -69 278 -130 530 -62 251 -115 456 -119 456 -3 -1 -25 -6
-49 -12z m13 -598 c150 -42 200 -320 74 -410 -42 -29 -124 -37 -166 -16 -102
53 -159 207 -119 320 18 50 42 76 91 98 47 22 66 23 120 8z"/>
<path d="M3763 5198 c-47 -23 -53 -103 -10 -133 49 -34 107 -2 107 59 0 58
-50 96 -97 74z"/>
<path d="M7422 4987 c-28 -29 -28 -76 -2 -105 61 -65 156 32 104 106 -21 30
-73 30 -102 -1z"/>
<path d="M5351 4954 c-66 -30 -110 -73 -148 -145 -25 -49 -28 -64 -28 -154 0
-115 17 -164 81 -235 106 -117 293 -122 405 -10 73 73 93 125 94 245 0 82 -4
108 -21 146 -72 155 -238 221 -383 153z m204 -97 c21 -12 53 -42 70 -65 27
-40 30 -51 30 -125 0 -106 -27 -166 -93 -208 -107 -68 -241 -13 -282 115 -19
59 -8 156 24 210 53 90 164 123 251 73z"/>
<path d="M4205 4951 c-101 -26 -165 -89 -197 -194 -36 -119 -12 -254 62 -353
107 -143 324 -134 428 18 49 71 49 81 -1 105 l-44 21 -21 -44 c-25 -51 -84
-94 -139 -100 -49 -7 -120 28 -150 75 -22 33 -46 101 -39 109 3 2 350 37 424
42 10 1 -2 90 -19 135 -28 76 -75 134 -129 162 -50 25 -129 36 -175 24z m118
-111 c39 -18 76 -60 92 -102 5 -13 1 -18 -17 -22 -45 -10 -290 -28 -295 -22
-12 12 21 86 52 116 53 51 104 60 168 30z"/>
<path d="M5870 4943 c0 -10 -50 -537 -55 -575 l-5 -46 50 -4 c27 -1 50 -2 50
-2 0 1 9 93 20 204 20 198 38 275 69 295 31 19 70 22 97 9 15 -8 28 -13 29
-12 8 10 55 88 55 92 0 2 -15 11 -34 20 -54 25 -100 21 -139 -14 -19 -16 -36
-30 -39 -30 -2 0 -4 12 -3 28 0 25 -4 27 -47 32 -27 3 -48 5 -48 3z"/>
<path d="M17044 4906 c-52 -24 -84 -58 -101 -111 l-10 -30 -13 28 c-7 15 -17
27 -22 27 -8 0 -68 -28 -77 -36 -2 -2 56 -129 129 -282 l134 -279 38 17 c21 9
41 19 43 22 3 3 -30 82 -74 175 -94 197 -109 254 -87 307 17 41 68 76 111 76
66 0 84 -24 189 -243 l99 -206 41 21 c23 11 43 22 44 24 7 5 -170 368 -205
421 -59 90 -143 114 -239 69z"/>
<path d="M3789 4894 c-13 -4 -7 -64 49 -482 35 -262 67 -480 70 -483 4 -3 26
-4 50 -1 31 3 42 9 42 21 0 9 -29 225 -63 481 l-63 465 -34 2 c-19 0 -42 -1
-51 -3z"/>
<path d="M6357 4889 c-59 -14 -91 -34 -136 -85 -61 -70 -85 -139 -85 -254 -1
-108 20 -169 77 -228 65 -68 173 -98 264 -73 48 13 132 76 152 114 13 24 12
27 -15 51 -37 33 -46 32 -72 -3 -25 -34 -96 -71 -137 -71 -44 0 -112 38 -135
75 -22 36 -41 127 -30 144 4 7 74 1 215 -18 116 -16 212 -27 215 -24 3 2 5 41
4 86 -1 98 -26 166 -82 220 -61 59 -155 86 -235 66z m142 -118 c37 -26 61 -63
71 -106 5 -22 7 -41 6 -43 -4 -3 -309 38 -314 43 -19 18 66 111 112 124 40 12
94 4 125 -18z"/>
<path d="M3389 4841 c-123 -40 -189 -141 -189 -289 0 -146 65 -269 170 -325
50 -26 62 -29 132 -25 63 4 86 10 125 34 49 30 102 97 121 153 10 29 9 32 -16
45 -59 30 -70 29 -77 -4 -8 -37 -56 -95 -96 -116 -35 -18 -90 -18 -133 0 -40
16 -89 74 -104 121 -12 42 -36 33 221 79 103 18 190 36 193 39 4 3 -3 37 -15
76 -40 132 -131 213 -245 218 -33 1 -73 -1 -87 -6z m138 -108 c31 -14 93 -83
93 -103 0 -9 -309 -64 -317 -56 -9 9 16 87 38 117 39 55 120 74 186 42z"/>
<path d="M15682 4823 c-33 -12 -42 -19 -37 -32 4 -9 90 -234 193 -501 102
-267 189 -489 193 -494 9 -10 79 12 85 28 2 6 -16 63 -40 125 -39 101 -48 149
-27 137 3 -2 73 -43 155 -90 l149 -87 60 22 c71 27 85 13 -150 150 -95 55
-173 106 -173 112 0 7 27 81 60 166 33 85 59 155 57 157 -2 2 -30 -7 -62 -20
l-59 -24 -50 -136 c-28 -75 -53 -132 -57 -128 -3 4 -60 148 -125 319 -66 172
-121 312 -124 312 -3 0 -24 -7 -48 -16z"/>
<path d="M6806 4811 c-8 -27 -106 -567 -106 -584 0 -15 75 -35 87 -23 4 3 19
74 34 156 55 299 85 349 198 337 29 -3 52 -13 70 -31 23 -24 26 -34 24 -89 -1
-34 -17 -143 -36 -242 -19 -99 -33 -182 -31 -184 4 -4 88 -20 91 -18 6 7 83
449 83 479 0 100 -92 188 -198 188 -28 0 -90 -25 -114 -47 -16 -14 -17 -13
-11 21 3 20 2 36 -3 36 -5 0 -26 4 -46 9 -31 7 -38 6 -42 -8z"/>
<path d="M7360 4668 c-6 -29 -35 -165 -64 -303 -36 -170 -49 -252 -42 -256 6
-4 28 -9 48 -13 30 -5 37 -3 42 11 3 10 30 137 60 283 31 146 58 275 61 286 4
19 -2 23 -40 33 -24 6 -46 11 -49 11 -2 0 -10 -24 -16 -52z"/>
<path d="M15220 4666 c-22 -9 -34 -19 -34 -30 2 -15 334 -1006 340 -1015 5 -6
94 21 94 28 0 4 -18 61 -40 126 -25 75 -36 123 -31 128 6 6 46 -13 108 -53 54
-35 121 -77 148 -95 l50 -32 63 21 62 21 -186 120 c-102 66 -188 123 -190 126
-2 4 27 79 65 166 37 87 68 159 66 160 -1 2 -29 -6 -62 -18 l-61 -20 -57 -135
c-31 -74 -58 -134 -60 -134 -2 0 -52 146 -112 325 -59 179 -112 325 -118 324
-5 0 -26 -6 -45 -13z"/>
<path d="M16540 4669 c-139 -27 -230 -172 -200 -322 17 -88 52 -160 107 -218
59 -63 110 -90 182 -96 141 -12 267 93 287 240 6 40 4 45 -17 50 -13 4 -36 7
-51 7 -24 0 -28 -4 -28 -27 0 -35 -31 -102 -56 -125 -80 -70 -196 -52 -259 40
-14 20 -25 40 -25 43 0 4 88 44 195 90 107 46 195 89 195 96 0 18 -38 82 -76
130 -37 44 -115 88 -174 96 -19 3 -55 1 -80 -4z m136 -124 c85 -50 81 -55 -79
-124 -78 -34 -145 -61 -149 -61 -12 0 -10 85 3 117 13 34 47 72 74 83 41 18
107 11 151 -15z"/>
<path d="M7585 4648 c-56 -224 -132 -575 -127 -580 4 -4 26 -10 48 -14 l42 -6
37 158 c57 248 80 301 138 325 72 30 167 -23 167 -94 0 -17 -21 -125 -47 -239
-25 -114 -45 -210 -42 -212 3 -3 24 -6 48 -8 l44 -3 48 205 c54 229 59 300 29
360 -43 85 -171 121 -255 72 l-38 -23 6 30 c7 35 6 36 -50 46 -39 6 -43 5 -48
-17z"/>
<path d="M2228 4560 c-49 -15 -86 -43 -109 -84 l-23 -40 -13 31 -12 31 -43
-13 c-24 -7 -42 -17 -42 -21 1 -5 41 -138 89 -296 94 -309 89 -298 151 -275
l31 12 -48 155 c-62 197 -75 270 -60 320 15 50 62 80 123 80 79 0 87 -15 198
-377 17 -57 34 -103 37 -103 22 0 83 25 83 34 -1 21 -127 421 -143 451 -45 86
-128 123 -219 95z"/>
<path d="M8246 4494 c-69 -22 -155 -109 -186 -189 -31 -81 -38 -194 -16 -269
42 -144 208 -219 339 -152 54 27 55 25 28 -63 -29 -94 -64 -146 -114 -170 -53
-26 -90 -26 -142 -2 -72 32 -100 78 -107 180 -3 30 -7 35 -45 46 -39 12 -42
11 -47 -9 -12 -43 -5 -117 14 -169 24 -63 67 -108 133 -137 156 -69 317 -2
377 156 20 53 179 663 180 690 0 6 -20 15 -45 21 l-45 10 -10 -39 -11 -39 -32
48 c-56 83 -169 119 -271 87z m182 -123 c54 -38 75 -92 70 -180 -5 -88 -29
-142 -82 -189 -69 -61 -152 -65 -221 -10 -63 49 -82 162 -45 260 24 62 43 87
96 123 33 23 47 26 95 23 37 -3 66 -12 87 -27z"/>
<path d="M1813 4412 c-24 -9 -43 -20 -43 -24 0 -4 30 -90 67 -190 36 -101 68
-206 71 -234 4 -46 1 -55 -25 -84 -24 -27 -38 -33 -81 -38 -61 -5 -93 11 -118
61 -13 24 -94 240 -149 394 -3 9 -15 8 -50 -3 -25 -9 -45 -18 -45 -21 0 -15
134 -371 155 -412 50 -100 148 -146 247 -117 75 22 122 57 148 111 36 75 25
143 -60 375 -39 107 -72 196 -73 196 -1 1 -21 -6 -44 -14z"/>
<path d="M14022 4357 c-37 -9 -43 -13 -38 -31 2 -12 53 -250 112 -531 58 -280
108 -511 109 -513 2 -2 23 0 47 5 42 9 43 10 41 46 l-2 38 46 -28 c37 -22 58
-27 109 -26 162 1 264 133 251 324 -9 132 -72 241 -169 294 -107 58 -232 33
-305 -63 -18 -24 -33 -42 -33 -39 0 2 -25 120 -55 263 -30 142 -55 262 -55
267 0 8 -1 8 -58 -6z m481 -530 c46 -35 87 -120 94 -195 14 -152 -113 -260
-239 -204 -25 11 -57 35 -71 54 -80 105 -77 278 6 341 45 34 55 37 119 34 43
-2 64 -10 91 -30z"/>
<path d="M8888 4340 c-166 -41 -278 -271 -223 -457 56 -188 281 -252 428 -122
26 22 47 44 47 47 -1 4 -14 22 -30 41 l-29 34 -40 -36 c-103 -93 -240 -59
-277 68 -18 65 -11 128 15 121 9 -3 103 -28 208 -55 139 -35 195 -46 200 -38
4 6 9 51 11 99 5 98 -10 155 -53 213 -50 64 -173 105 -257 85z m160 -133 c13
-12 30 -33 37 -47 16 -32 29 -110 18 -110 -14 1 -305 79 -310 84 -11 11 75 88
111 100 48 16 110 5 144 -27z"/>
<path d="M523 4316 c-142 -46 -249 -159 -294 -309 -28 -89 -23 -242 9 -332 28
-77 101 -184 161 -236 109 -94 266 -143 389 -120 275 51 423 329 317 596 -15
39 -31 74 -36 79 -6 7 -312 -125 -333 -145 -6 -6 -2 -26 12 -54 l21 -44 53 23
c29 13 83 38 120 54 l66 30 13 -30 c21 -50 14 -150 -14 -212 -66 -144 -196
-214 -348 -186 -306 54 -454 455 -252 680 103 115 234 144 378 84 95 -40 89
-41 107 14 l16 50 -72 33 c-63 30 -82 34 -171 36 -65 2 -115 -2 -142 -11z"/>
<path d="M1334 4249 c-40 -11 -75 -47 -90 -91 l-12 -33 -11 28 c-6 15 -12 27
-15 27 -4 0 -80 -31 -84 -34 -2 -3 225 -566 231 -572 3 -4 77 23 85 31 2 1
-29 82 -68 179 -85 213 -95 254 -77 299 18 42 39 59 79 62 32 2 33 4 36 50 4
64 -9 73 -74 54z"/>
<path d="M9267 3937 c-81 -331 -81 -307 -11 -320 l32 -6 32 132 c54 217 77
282 115 323 34 35 37 36 92 32 48 -4 61 -10 85 -37 17 -19 28 -43 28 -61 0
-17 -23 -123 -51 -236 -30 -120 -48 -209 -43 -214 5 -5 27 -12 49 -15 l40 -7
49 197 c61 248 68 317 35 375 -50 88 -178 123 -261 72 l-37 -23 9 31 c10 33 4
38 -62 54 l-26 6 -75 -303z"/>
<path d="M11196 4198 c-3 -17 -6 -41 -6 -53 0 -25 13 -29 133 -41 41 -4 71
-12 74 -20 2 -7 -19 -202 -47 -434 -28 -233 -49 -428 -46 -435 2 -7 25 -14 50
-16 54 -5 41 -61 101 446 25 215 48 401 51 414 4 21 9 23 42 17 20 -3 69 -8
108 -12 l71 -7 6 49 c3 27 4 51 2 53 -2 2 -109 16 -237 32 -128 15 -247 30
-264 33 -29 4 -32 2 -38 -26z"/>
<path d="M15154 4147 c-26 -10 -29 -15 -23 -37 13 -45 9 -47 -38 -23 -40 20
-58 24 -108 20 -148 -11 -239 -117 -239 -277 1 -167 92 -313 223 -358 96 -33
211 6 268 90 l31 48 12 -35 c9 -26 16 -34 28 -31 10 3 29 8 45 12 15 3 27 11
27 18 0 8 -131 485 -156 569 -6 19 -26 21 -70 4z m-27 -174 c56 -45 87 -112
91 -198 3 -58 0 -80 -17 -112 -71 -141 -244 -128 -321 23 -36 71 -40 184 -8
239 13 22 39 50 58 63 30 20 44 23 97 20 51 -3 69 -9 100 -35z"/>
<path d="M12273 4060 c-47 -19 -58 -92 -20 -128 32 -30 71 -28 96 4 35 45 24
96 -26 122 -25 14 -21 13 -50 2z"/>
<path d="M13808 3860 c-74 -23 -118 -84 -118 -165 0 -95 38 -135 171 -180 92
-31 119 -56 119 -106 0 -57 -36 -94 -90 -94 -37 0 -47 6 -75 38 -18 20 -35 37
-39 37 -4 0 -22 -10 -41 -23 l-34 -23 18 -30 c76 -122 225 -137 318 -31 36 41
48 86 41 158 -9 85 -61 134 -182 171 -104 31 -137 73 -100 126 20 29 72 29
108 1 l26 -20 34 26 c31 23 34 29 23 46 -32 52 -123 87 -179 69z"/>
<path d="M13473 3803 c-7 -2 -13 -20 -13 -38 l0 -34 -50 31 c-95 59 -204 48
-289 -28 -140 -126 -134 -387 12 -525 90 -85 247 -80 332 9 17 18 33 32 37 32
5 0 8 -44 8 -97 0 -115 -19 -166 -71 -204 -46 -33 -153 -35 -196 -3 -37 28
-73 81 -73 110 0 31 -12 36 -64 29 l-43 -7 9 -40 c18 -82 63 -148 127 -185 63
-37 178 -44 242 -16 60 27 104 66 136 120 39 67 40 152 7 529 l-28 324 -35 -1
c-20 0 -42 -3 -48 -6z m-110 -117 c41 -17 91 -73 108 -123 8 -21 13 -70 13
-109 0 -62 -4 -78 -29 -119 -37 -59 -83 -85 -151 -85 -106 0 -178 93 -179 230
0 61 5 84 25 124 42 81 133 116 213 82z"/>
<path d="M11660 3780 c0 -12 218 -661 224 -667 6 -7 316 629 310 638 -3 5 -26
9 -53 9 l-47 0 -94 -195 c-51 -108 -97 -192 -100 -188 -4 4 -36 96 -70 203
-34 107 -67 198 -74 202 -17 12 -96 9 -96 -2z"/>
<path d="M12656 3760 c-16 -5 -44 -24 -63 -42 l-33 -32 0 32 c0 32 0 32 -50
32 l-50 0 0 -152 c0 -84 3 -224 7 -310 l6 -158 49 0 49 0 -1 208 c-2 235 5
272 60 310 60 40 137 22 172 -41 8 -14 14 -100 18 -247 l5 -225 48 -3 47 -3 0
202 c0 303 -18 370 -110 417 -46 23 -102 27 -154 12z"/>
<path d="M12245 3748 c-6 -17 -23 -601 -18 -610 2 -5 26 -8 52 -8 l48 0 8 304
c4 168 4 310 0 315 -9 15 -85 14 -90 -1z"/>
</g>
</svg>
