<?xml version="1.0" standalone="no"?>
<!DOCTYPE svg PUBLIC "-//W3C//DTD SVG 20010904//EN"
 "http://www.w3.org/TR/2001/REC-SVG-20010904/DTD/svg10.dtd">
<svg version="1.0" xmlns="http://www.w3.org/2000/svg"
 width="1000pt" height="600pt" viewBox="0 0 1000 600" preserveAspectRatio="xMidYMid meet">
<metadata>Arrop up</metadata>
<g transform="translate(0.000000,600.000000) scale(0.100000,-0.100000)"
fill="#ffffff" stroke="none">
<path d="M4490 5595 c-30 -9 -72 -26 -92 -38 -37 -22 -294 -277 -2719 -2693
-1519 -1513 -1404 -1386 -1404 -1549 0 -152 5 -159 378 -534 373 -375 373
-376 527 -376 152 0 162 7 495 335 154 151 644 633 1090 1070 445 437 1034
1016 1308 1285 275 270 503 490 507 490 10 0 -76 84 1645 -1605 754 -740 1411
-1384 1460 -1432 121 -116 176 -143 300 -143 151 0 156 4 526 374 372 372 374
375 374 531 0 166 26 133 -598 755 -3085 3076 -3488 3474 -3551 3505 -77 37
-168 46 -246 25z"/>
</g>
</svg>
